<?xml version="1.0" encoding="UTF-8"?>
<svg id="Layer_1" data-name="Layer 1" xmlns="http://www.w3.org/2000/svg" viewBox="0 0 397.55 109.94">
  <defs>
    <style>
      .cls-1 {
        fill: #6c0;
      }

      .cls-2 {
        fill: #4b286d;
      }
    </style>
  </defs>
  <path class="cls-1" d="M53.24,35.21c12.16-3.17,23.26-5.24,31.28-7.17.39-.09.3-.67-.1-.64-10.45.56-41.7,2.22-41.7,2.22-17.97,1.44-21.26,8.49-17.35,13.95l7.06,9.88c.21.29.66.14.67-.21.06-7.55,4.64-13.99,20.14-18.03h0Z"/>
  <path class="cls-1" d="M47.62,74.83c.27.4.81.26.74-.27-.81-5.11.56-18.53,7.41-25.15,10.14-9.79,23.08-13.65,35.2-20.1.33-.18.14-.67-.22-.58-8.44,2.11-30.51,7.96-37.95,11-8.65,3.54-20.23,14.38-9.55,29.34l4.37,5.77h0Z"/>
  <g>
    <path class="cls-2" d="M248.02,47.1c1.55,0,2.85,1.23,2.85,2.83s-1.3,2.86-2.85,2.86-2.88-1.23-2.88-2.86,1.31-2.83,2.88-2.83ZM248.02,52.38c1.32,0,2.34-1.05,2.34-2.45s-1.02-2.41-2.34-2.41-2.35,1.05-2.35,2.41,1.02,2.45,2.35,2.45ZM246.9,48.27h1.29c.79,0,1.16.31,1.16.95,0,.6-.38.85-.88.9l.96,1.47h-.56l-.9-1.43h-.55v1.43h-.51v-3.33h-.01ZM247.42,49.75h.54c.45,0,.88-.02.88-.55,0-.44-.38-.51-.74-.51h-.68v1.06Z"/>
    <path class="cls-2" d="M267.62,47.1h9.78c8.58,0,13.59,5.24,13.59,13.71s-5.01,13.71-13.59,13.71h-9.78v-27.41ZM277.36,70.9c6.04,0,9.32-3.69,9.32-10.1s-3.27-10.08-9.32-10.08h-5.62v20.18h5.62Z"/>
    <path class="cls-2" d="M293.96,49.68c0-1.27,1.04-2.35,2.35-2.35s2.35,1.04,2.35,2.35-1.04,2.35-2.35,2.35-2.35-1.04-2.35-2.35ZM294.38,54.64h3.85v19.88h-3.85v-19.88Z"/>
    <path class="cls-2" d="M302.74,75.9h3.85c.3,2.35,2.05,3.51,4.96,3.51,3.62,0,5.58-1.89,5.58-5.54v-2.19c-1.43,1.96-3.58,3.09-6.39,3.09-5.51,0-9.13-4.08-9.13-10.28s3.58-10.28,9.09-10.28c2.93,0,5.16,1.23,6.59,3.27v-2.81h3.69v19.14c0,5.19-3.12,8.74-9.48,8.74-5.39,0-8.4-2.65-8.78-6.62h.01ZM317.26,64.47c0-4.43-2.28-6.97-5.81-6.97s-5.81,2.7-5.81,6.97,2.28,6.97,5.81,6.97,5.81-2.54,5.81-6.97Z"/>
    <path class="cls-2" d="M324.93,49.68c0-1.27,1.04-2.35,2.35-2.35s2.35,1.04,2.35,2.35-1.04,2.35-2.35,2.35-2.35-1.04-2.35-2.35ZM325.35,54.64h3.85v19.88h-3.85v-19.88Z"/>
    <path class="cls-2" d="M335.1,70.09v-12.29h-3.2v-3.16h3.2v-5.7h3.85v5.7h4.01v3.16h-4.01v11.94c0,1.15.58,1.7,2.28,1.7h1.73v3.09c-.85.07-1.66.12-2.35.12-3.58,0-5.51-1.23-5.51-4.55Z"/>
    <path class="cls-2" d="M358.32,71.82c-1.34,2.08-3.58,3.16-6.48,3.16-4.27,0-7.08-2.08-7.08-5.9,0-3.2,1.92-5.62,7.47-6.16l2.93-.3c1.92-.23,2.97-.88,2.97-2.5,0-1.85-.97-2.85-4.08-2.85s-4.43.88-4.62,3.58h-3.81c.23-4.01,2.47-6.66,8.44-6.66s7.86,2.39,7.86,5.86v10.51c0,.62.3,1,1.08,1h1.08v2.97c-.58.07-1.27.12-1.89.12-2.47,0-3.58-.88-3.85-2.81h-.02ZM352.43,71.98c2.81,0,5.7-1.57,5.7-5.31v-2.08c-.58.46-1.39.69-2.47.81l-2.77.3c-3.2.39-4.15,1.5-4.15,3.27s1.2,3,3.69,3Z"/>
    <path class="cls-2" d="M366.44,70.09v-22.99h3.85v22.65c0,1.15.5,1.7,1.92,1.7h1.43v3.09c-.77.07-1.54.12-2.15.12-3.27,0-5.05-1.23-5.05-4.55Z"/>
    <path class="cls-2" d="M138.63,52.42v-5.33h-19v27.42h19v-5.56h-11.3v-6.08h9.4v-5.33h-9.4v-5.12h11.3Z"/>
    <path class="cls-2" d="M172.17,69.09h-11.88v-22.01h-7.8v27.42h19.68v-5.41Z"/>
    <path class="cls-2" d="M234.92,57.54c-5.26-1.19-7.09-1.32-7.09-3.41,0-1.94,2.6-2.55,4.1-2.55,2.43,0,5.29.57,8.19,2.07l2.12-5.05c-2.98-1.64-6.82-2.31-10.51-2.31-7.25,0-12.12,2.94-12.32,8.68-.21,5.23,4.04,7.19,7.96,8,3.77.78,7.59,1.45,7.67,3.68.07,2.07-1.78,2.95-5.29,2.95-3.24,0-6.26-1.04-9.35-2.33l-1.79,5.48c3.54,1.51,7.14,2.34,10.85,2.34,5.15,0,8.91-.8,11.68-3.4,1.92-1.78,2.55-3.94,2.55-5.99-.01-4.34-2.71-6.79-8.76-8.15Z"/>
    <path class="cls-2" d="M108.57,52.49v-5.4h-23.92v5.4h8.08v22.02h7.74v-22.02h8.09Z"/>
    <path class="cls-2" d="M198.75,47.09v17.42c0,1.36,0,1.74-.08,2.28-.24,1.66-1.86,2.62-4.43,2.65-1.9-.03-3.29-.59-3.95-1.58-.33-.51-.48-1.43-.48-2.9v-17.87h-8.08v18.9c0,2.62.35,3.8,1.53,5.29,1.95,2.45,5.75,3.73,11,3.73h.28c7.01,0,10.63-2.74,11.68-5.3.52-1.24.57-1.83.57-4.33v-18.28h-8.04Z"/>
  </g>
</svg>